<?xml version="1.0" standalone="no"?>
<!DOCTYPE svg PUBLIC "-//W3C//DTD SVG 20010904//EN"
 "http://www.w3.org/TR/2001/REC-SVG-20010904/DTD/svg10.dtd">
<svg version="1.0" xmlns="http://www.w3.org/2000/svg"
 width="261.000000pt" height="252.000000pt" viewBox="0 0 261.000000 252.000000"
 preserveAspectRatio="xMidYMid meet">

<g transform="translate(0.000000,252.000000) scale(0.100000,-0.100000)"
fill="#000000" stroke="none">
<path d="M1506 2300 c-14 -17 -31 -50 -37 -73 -6 -23 -16 -45 -22 -49 -6 -3
-41 9 -79 28 -94 47 -131 46 -255 -12 -113 -53 -196 -75 -215 -56 -8 8 -9 21
-1 45 11 37 2 67 -21 67 -23 0 -175 -166 -199 -216 -19 -43 -22 -65 -22 -175
l1 -127 -38 6 c-22 3 -44 0 -52 -8 -25 -20 -28 -91 -11 -241 11 -99 14 -175
10 -244 -8 -115 13 -293 46 -403 12 -37 44 -112 72 -167 44 -87 65 -114 156
-206 117 -116 177 -154 301 -188 82 -23 213 -28 290 -11 122 28 231 89 333
188 190 185 277 412 277 722 0 78 -6 168 -15 213 -20 103 -19 247 1 317 26 89
27 105 10 119 -13 11 -24 10 -67 -8 -28 -13 -54 -20 -57 -17 -7 8 18 60 75
159 37 63 43 80 33 92 -17 20 -41 19 -128 -5 -81 -23 -114 -25 -144 -9 -11 6
-43 59 -73 123 -30 61 -63 124 -75 139 -28 36 -62 35 -94 -3z m89 -631 c75
-39 314 -205 357 -247 21 -21 30 -43 38 -96 6 -38 7 -73 3 -77 -4 -4 -42 14
-83 42 -189 124 -344 140 -506 54 -62 -33 -111 -32 -220 6 -101 35 -202 41
-254 14 -16 -8 -36 -15 -44 -15 -17 0 -215 -130 -236 -154 -27 -33 -40 -19
-40 42 0 51 5 66 40 119 22 34 46 66 54 70 8 4 34 35 59 68 24 33 56 71 70 84
l26 24 11 -27 c5 -15 10 -33 10 -40 0 -7 3 -16 7 -19 3 -4 14 -29 22 -55 31
-92 63 -64 120 105 20 59 41 108 47 110 6 2 55 -30 110 -70 126 -94 180 -124
224 -123 45 1 62 35 64 125 1 36 5 72 10 80 11 16 56 8 111 -20z m94 -315 c11
-11 3 -132 -11 -160 -7 -16 -25 -35 -40 -43 -23 -13 -34 -14 -75 -3 -52 14
-106 51 -124 83 -15 30 -3 82 24 98 49 32 203 48 226 25z m-551 -49 c48 -22
52 -26 52 -59 0 -85 -155 -162 -219 -108 -15 12 -24 36 -31 91 -9 65 -8 76 7
93 15 17 26 19 78 13 33 -4 84 -17 113 -30z m676 -15 c73 -43 167 -112 180
-132 13 -21 -4 -168 -29 -255 -52 -178 -118 -295 -230 -405 -156 -153 -347
-214 -545 -174 -284 58 -500 313 -561 661 l-20 110 28 23 c55 46 218 162 227
163 11 0 35 -82 36 -118 0 -13 13 -37 28 -54 55 -61 190 -46 268 30 36 36 44
39 117 45 76 7 78 6 115 -25 69 -57 173 -83 237 -59 27 10 71 90 67 122 -2 9
2 19 8 23 5 3 10 22 10 41 0 19 3 34 6 34 4 0 30 -14 58 -30z m-436 -32 c-3
-21 -8 -23 -63 -23 -55 0 -60 2 -63 23 -3 21 0 22 63 22 63 0 66 -1 63 -22z"/>
<path d="M1537 1272 c-10 -10 -17 -27 -17 -38 1 -16 4 -15 21 9 23 31 54 35
87 11 32 -22 43 -7 12 16 -32 25 -82 25 -103 2z"/>
<path d="M1010 1241 c-12 -24 -13 -41 -1 -41 5 0 11 9 14 20 6 24 25 25 63 5
33 -17 54 -19 54 -6 0 10 -78 41 -102 41 -10 0 -22 -9 -28 -19z"/>
<path d="M1595 909 c-81 -17 -140 -32 -155 -40 -8 -4 -49 -17 -90 -30 -41 -12
-109 -32 -150 -45 -41 -13 -80 -24 -87 -24 -7 0 -13 -8 -13 -18 0 -14 13 -22
53 -31 88 -23 150 -49 187 -81 68 -58 106 -53 218 30 113 85 162 142 162 192
0 32 -4 40 -26 48 -29 11 -43 11 -99 -1z m76 -68 c-15 -27 -109 -111 -125
-111 -8 0 -18 5 -21 10 -3 6 -27 10 -52 10 -38 0 -50 -5 -75 -32 l-30 -32 -48
27 c-26 15 -55 27 -64 27 -9 0 -16 4 -16 9 0 10 96 41 260 85 144 38 188 40
171 7z"/>
</g>
</svg>
